<?xml version="1.0" encoding="UTF-8" standalone="no"?>
<svg
   xmlns:dc="http://purl.org/dc/elements/1.1/"
   xmlns:cc="http://creativecommons.org/ns#"
   xmlns:rdf="http://www.w3.org/1999/02/22-rdf-syntax-ns#"
   xmlns:svg="http://www.w3.org/2000/svg"
   xmlns="http://www.w3.org/2000/svg"
   viewBox="0 0 2515.6875 349.20001"
   height="349.20001"
   width="2515.6875"
   xml:space="preserve"
   version="1.1"
   id="svg2"><metadata
     id="metadata8"><rdf:RDF><cc:Work
         rdf:about=""><dc:format>image/svg+xml</dc:format><dc:type
           rdf:resource="http://purl.org/dc/dcmitype/StillImage" /></cc:Work></rdf:RDF></metadata><defs
     id="defs6" /><g
     transform="matrix(1.25,0,0,-1.25,0,349.2)"
     id="g10"><g
       transform="scale(0.137219,0.137219)"
       id="g12"><path
         id="path14"
         style="fill:#231f20;fill-opacity:1;fill-rule:nonzero;stroke:none"
         d="m 1945.85,1324.18 -322.43,-857.219 -90.64,0 366.45,932.319 99.71,0 357.38,-932.319 -90.64,0 -319.83,857.219" /><path
         id="path16"
         style="fill:#231f20;fill-opacity:1;fill-rule:nonzero;stroke:none"
         d="m 2603.64,745.363 c 3.44,-41.437 12.72,-76.621 27.84,-105.531 15.09,-28.934 34.51,-52.441 58.26,-70.574 23.74,-18.125 51.15,-31.301 82.23,-39.496 31.08,-8.215 64.3,-12.297 99.71,-12.297 41.43,0 77.25,5.183 107.47,15.539 30.21,10.363 54.81,24.375 73.81,42.086 18.98,17.68 33.02,38.195 42.08,61.508 9.07,23.304 13.6,47.906 13.6,73.8 0,36.262 -8.21,65.598 -24.6,88.055 -16.41,22.442 -37.77,40.789 -64.1,55.031 -26.34,14.246 -56.55,25.68 -90.64,34.317 -34.11,8.621 -69.07,17.031 -104.89,25.25 -35.83,8.191 -70.78,17.906 -104.89,29.129 -34.1,11.211 -64.31,26.324 -90.64,45.332 -26.34,18.968 -47.7,43.378 -64.09,73.158 -16.41,29.78 -24.6,67.54 -24.6,113.3 0,31.93 6.68,63 20.06,93.23 13.38,30.21 33.23,56.98 59.57,80.28 26.32,23.31 59.35,41.87 99.06,55.69 39.7,13.79 85.47,20.72 137.26,20.72 52.65,0 98.61,-7.35 137.9,-22.02 39.28,-14.69 71.87,-34.76 97.76,-60.21 25.91,-25.47 45.33,-55.03 58.28,-88.7 12.95,-33.67 19.42,-69.5 19.42,-107.48 l -84.16,0 c 0,35.39 -6.28,66.04 -18.79,91.94 -12.51,25.9 -29.58,47.04 -51.14,63.45 -21.59,16.39 -46.19,28.49 -73.81,36.26 -27.64,7.76 -56.13,11.65 -85.46,11.65 -44.9,0 -82.67,-6.27 -113.3,-18.77 -30.65,-12.53 -55.04,-28.72 -73.16,-48.56 -18.13,-19.87 -30.65,-41.88 -37.55,-66.05 -6.92,-24.17 -8.22,-48.35 -3.89,-72.51 5.17,-30.22 17.26,-54.39 36.26,-72.51 18.97,-18.13 42.28,-33.02 69.92,-44.68 27.62,-11.65 58.05,-21.16 91.29,-28.481 33.22,-7.348 67.11,-15.11 101.65,-23.309 34.52,-8.211 67.98,-17.926 100.35,-29.133 32.37,-11.222 61.06,-26.347 86.11,-45.324 25.03,-18.996 45.1,-43.375 60.21,-73.16 15.1,-29.785 22.66,-67.133 22.66,-112.004 0,-86.336 -29.78,-153.242 -89.35,-200.707 -59.56,-47.465 -143.3,-71.223 -251.2,-71.223 -48.35,0 -93.23,6.274 -134.67,18.774 -41.43,12.504 -77.27,31.512 -107.48,56.98 -30.22,25.45 -53.74,56.977 -70.57,94.52 -16.83,37.555 -25.24,81.785 -25.24,132.73 l 85.46,0" /><path
         id="path18"
         style="fill:#231f20;fill-opacity:1;fill-rule:nonzero;stroke:none"
         d="m 3816.93,953.84 c 41.44,0 78.55,2.59 111.37,7.769 32.8,5.176 60.63,14.891 83.52,29.137 22.86,14.234 40.56,33.664 53.09,58.264 12.5,24.6 18.77,56.76 18.77,96.47 0,58.69 -19.22,103.15 -57.62,133.38 -38.42,30.2 -99.51,45.32 -183.23,45.32 l -227.9,0 0,-370.34 202,0 z m -290.04,-486.879 0,932.319 340.55,0 c 60.41,0 110.27,-6.92 149.55,-20.71 39.28,-13.82 70.35,-32.83 93.23,-56.98 22.87,-24.18 38.85,-52.02 47.92,-83.52 9.06,-31.52 13.59,-64.55 13.59,-99.07 0,-51.78 -10.58,-94.52 -31.72,-128.18 -21.17,-33.672 -48.56,-60.222 -82.23,-79.644 -33.66,-19.422 -71.86,-33.02 -114.59,-40.781 -42.73,-7.774 -85.69,-11.661 -128.84,-11.661 l -199.42,0 0,-411.773 -88.04,0" /><path
         id="path20"
         style="fill:#231f20;fill-opacity:1;fill-rule:nonzero;stroke:none"
         d="m 4466.95,466.961 0,932.319 620.25,0 0,-75.1 -532.19,0 0,-336.668 480.4,0 0,-75.11 -480.4,0 0,-370.332 545.14,0 0,-75.109 -633.2,0" /><path
         id="path22"
         style="fill:#231f20;fill-opacity:1;fill-rule:nonzero;stroke:none"
         d="m 6051.88,1128.65 c -18.12,79.41 -51.79,135.96 -101,169.63 -49.2,33.67 -113.52,50.5 -192.94,50.5 -56.12,0 -104.46,-11.23 -145.02,-33.67 -40.59,-22.45 -74.03,-52.66 -100.36,-90.63 -26.34,-38 -45.77,-81.81 -58.26,-131.44 -12.53,-49.65 -18.78,-102.091 -18.78,-157.329 0,-51.793 5.38,-102.742 16.18,-152.793 10.79,-50.074 28.69,-94.746 53.74,-134.02 25.02,-39.296 58.7,-71.019 101.01,-95.183 42.28,-24.172 95.37,-36.25 159.27,-36.25 39.69,0 75.94,6.48 108.77,19.422 32.79,12.949 61.51,30.855 86.11,53.738 24.6,22.863 45.32,49.855 62.15,80.93 16.83,31.074 29.55,65.172 38.2,102.297 l 91.94,0 c -10.37,-44.899 -25.48,-87.407 -45.32,-127.539 -19.88,-40.149 -45.97,-75.333 -78.35,-105.543 -32.37,-30.219 -71.66,-54.176 -117.83,-71.864 -46.19,-17.683 -100.36,-26.547 -162.51,-26.547 -71.66,0 -132.95,13.176 -183.87,39.493 -50.95,26.32 -92.59,61.937 -124.96,106.828 -32.37,44.886 -55.91,96.898 -70.57,156.035 -14.69,59.125 -22.01,121.922 -22.01,188.406 0,88.899 11,164.449 33.02,226.609 22.01,62.15 52.44,112.85 91.29,152.15 38.84,39.26 84.59,67.75 137.26,85.46 52.64,17.68 110.06,26.55 172.21,26.55 47.47,0 91.71,-6.28 132.73,-18.79 40.99,-12.51 77.25,-31.29 108.77,-56.32 31.5,-25.05 57.4,-55.9 77.69,-92.58 20.27,-36.7 34.32,-79.21 42.08,-127.55 l -90.64,0" /><path
         id="path24"
         style="fill:#231f20;fill-opacity:1;fill-rule:nonzero;stroke:none"
         d="m 6389.83,1399.28 678.52,0 0,-75.1 -295.23,0 0,-857.219 -88.06,0 0,857.219 -295.23,0 0,75.1" /><path
         id="path26"
         style="fill:#231f20;fill-opacity:1;fill-rule:nonzero;stroke:none"
         d="m 7809.06,466.961 0,932.319 88.03,0 0,-400.116 551.61,0 0,400.116 88.03,0 0,-932.319 -88.03,0 0,457.098 -551.61,0 0,-457.098 -88.03,0" /><path
         id="path28"
         style="fill:#231f20;fill-opacity:1;fill-rule:nonzero;stroke:none"
         d="m 9273.51,517.465 c 60.42,0 112.45,11.426 156.03,34.316 43.58,22.864 79.43,53.289 107.49,91.285 28.06,37.977 48.76,82 62.17,132.075 13.33,50.058 20.03,102.297 20.03,156.683 0,64.746 -7.94,122.796 -23.9,174.166 -16.03,51.35 -39.13,95.17 -69.3,131.43 -30.25,36.26 -66.9,63.87 -110.05,82.87 -43.21,18.98 -91.53,28.49 -145.02,28.49 -59.61,0 -111.21,-11.65 -154.79,-34.96 -43.58,-23.31 -79.44,-54.18 -107.42,-92.59 -28.13,-38.42 -48.83,-82.67 -62.16,-132.73 -13.41,-50.07 -20.12,-102.285 -20.12,-156.676 0,-55.254 6.71,-107.914 20.12,-157.972 13.33,-50.082 34.03,-94.106 62.16,-132.082 27.98,-37.989 63.84,-68.204 107.42,-90.637 43.58,-22.457 96.05,-33.668 157.34,-33.668 z m -435.07,414.359 c 0,68.196 9.26,132.086 27.84,191.646 18.58,59.57 45.98,111.57 82.2,156.03 36.29,44.46 81.19,79.64 134.68,105.54 53.56,25.89 115.29,38.85 185.18,38.85 72.51,0 136.13,-12.75 191,-38.21 54.81,-25.47 100.57,-60.43 137.23,-104.88 36.73,-44.48 64.35,-96.7 82.93,-156.68 18.52,-60.01 27.84,-124.1 27.84,-192.296 0,-67.328 -9.32,-130.578 -27.84,-189.695 -18.58,-59.141 -45.98,-110.941 -82.27,-155.387 -36.22,-44.476 -81.55,-79.64 -135.92,-105.539 -54.43,-25.894 -117.47,-38.844 -189.11,-38.844 -71.64,0 -134.68,12.95 -189.04,38.844 -54.37,25.899 -99.7,61.063 -135.92,105.539 -36.29,44.446 -63.47,96.246 -81.62,155.387 -18.14,59.117 -27.18,122.367 -27.18,189.695" /><path
         id="path30"
         style="fill:#231f20;fill-opacity:1;fill-rule:nonzero;stroke:none"
         d="m 9993.46,466.961 0,932.319 134.64,0 305.7,-822.253 2.5,0 300.4,822.253 133.4,0 0,-932.319 -88,0 0,831.319 -2.6,0 -305.6,-831.319 -82.9,0 -306.9,831.319 -2.5,0 0,-831.319 -88.14,0" /><path
         id="path32"
         style="fill:#231f20;fill-opacity:1;fill-rule:nonzero;stroke:none"
         d="m 11262.4,466.961 0,932.319 134.7,0 305.6,-822.253 2.6,0 300.4,822.253 133.4,0 0,-932.319 -88.1,0 0,831.319 -2.6,0 -305.5,-831.319 -82.9,0 -306.9,831.319 -2.6,0 0,-831.319 -88.1,0" /><path
         id="path34"
         style="fill:#231f20;fill-opacity:1;fill-rule:nonzero;stroke:none"
         d="m 12521.1,1324.18 620.25,0 0,75.1016 -620.25,0 0,-75.1016 z" /><path
         id="path36"
         style="fill:#231f20;fill-opacity:1;fill-rule:nonzero;stroke:none"
         d="m 12521.1,912.402 568.434,0 0,75.5234 -568.434,0 0,-75.5234 z" /><path
         id="path38"
         style="fill:#231f20;fill-opacity:1;fill-rule:nonzero;stroke:none"
         d="m 12521.1,466.961 633.148,0 0,75.9688 -633.148,0 0,-75.9688 z" /></g></g></svg>